<svg width="22" height="18" viewBox="0 0 22 18" fill="none" xmlns="http://www.w3.org/2000/svg">
<path d="M21.6927 4.4033L19.196 12.29C19.0094 12.85 18.5194 13.2233 17.936 13.2233H8.29937C7.73937 13.2233 7.2027 12.8733 7.01604 12.3599L3.35271 2.48998H1.20604C0.692705 2.48998 0.272705 2.06998 0.272705 1.55665C0.272705 1.04331 0.692705 0.623314 1.20604 0.623314H3.9827C4.37937 0.623314 4.72937 0.879969 4.86937 1.2533L8.67271 11.3333H17.5394L19.5227 5.03329H8.5327C8.01937 5.03329 7.59937 4.61329 7.59937 4.09996C7.59937 3.58662 8.01937 3.16662 8.5327 3.16662H20.806C21.1094 3.16662 21.3894 3.32995 21.5527 3.56328C21.7394 3.79661 21.786 4.1233 21.6927 4.4033ZM8.76604 14.4366C8.36937 14.4366 7.9727 14.5999 7.6927 14.8799C7.4127 15.1599 7.24937 15.5566 7.24937 15.9533C7.24937 16.35 7.4127 16.7466 7.6927 17.0266C7.9727 17.3066 8.36937 17.47 8.76604 17.47C9.1627 17.47 9.55937 17.3066 9.83937 17.0266C10.1194 16.7466 10.2827 16.35 10.2827 15.9533C10.2827 15.5566 10.1194 15.1599 9.83937 14.8799C9.55937 14.5999 9.1627 14.4366 8.76604 14.4366ZM17.1427 14.4366C16.746 14.4366 16.3494 14.5999 16.0694 14.8799C15.7894 15.1599 15.626 15.5566 15.626 15.9533C15.626 16.35 15.7894 16.7466 16.0694 17.0266C16.3494 17.3066 16.746 17.47 17.1427 17.47C17.5394 17.47 17.936 17.3066 18.216 17.0266C18.496 16.7466 18.6594 16.35 18.6594 15.9533C18.6594 15.5566 18.496 15.1599 18.216 14.8799C17.936 14.5999 17.5394 14.4366 17.1427 14.4366Z" fill="#4680FF"/>
</svg>
