<svg width="30" height="30" viewBox="0 0 30 30" fill="none" xmlns="http://www.w3.org/2000/svg">
<path d="M28 0H2C0.895431 0 0 0.89543 0 2V28C0 29.1046 0.89543 30 2 30H28C29.1046 30 30 29.1046 30 28V2C30 0.895431 29.1046 0 28 0Z" fill="url(#paint0_linear_6_4299)"/>
<path d="M15.0002 6.00868C11.3138 6.00868 7.81324 5.68101 6.47616 9.10985C5.92386 10.526 6.00406 12.3652 6.00406 14.9987C6.00406 17.3097 5.92995 19.4816 6.47616 20.8866C7.8102 24.3175 11.3392 23.9888 14.9982 23.9888C18.5282 23.9888 22.1679 24.356 23.5212 20.8866C24.0746 19.4562 23.9933 17.6444 23.9933 14.9987C23.9933 11.4867 24.1873 9.21941 22.4826 7.51716C20.7567 5.7926 18.4226 6.00868 14.9962 6.00868H15.0002ZM14.1941 7.62875C21.8836 7.61658 22.8623 6.76241 22.3222 18.6284C22.1303 22.8252 18.9323 22.3647 15.0012 22.3647C7.83355 22.3647 7.62745 22.1597 7.62745 14.9947C7.62745 7.74643 8.19599 7.63281 14.1941 7.62672V7.62875ZM19.8024 9.12101C19.2064 9.12101 18.7232 9.60389 18.7232 10.1994C18.7232 10.7949 19.2064 11.2777 19.8024 11.2777C20.3983 11.2777 20.8816 10.7949 20.8816 10.1994C20.8816 9.60389 20.3983 9.12101 19.8024 9.12101ZM15.0002 10.382C12.4489 10.382 10.3808 12.4494 10.3808 14.9987C10.3808 17.548 12.4489 19.6145 15.0002 19.6145C17.5516 19.6145 19.6186 17.548 19.6186 14.9987C19.6186 12.4494 17.5516 10.382 15.0002 10.382ZM15.0002 12.002C18.9648 12.002 18.9699 17.9954 15.0002 17.9954C11.0367 17.9954 11.0306 12.002 15.0002 12.002Z" fill="white"/>
<defs>
<linearGradient id="paint0_linear_6_4299" x1="2.01425" y1="28.0455" x2="29.8113" y2="3.98276" gradientUnits="userSpaceOnUse">
<stop stop-color="#FFDD55"/>
<stop offset="0.5" stop-color="#FF543E"/>
<stop offset="1" stop-color="#C837AB"/>
</linearGradient>
</defs>
</svg>
