<svg width="30" height="30" viewBox="0 0 30 30" fill="none" xmlns="http://www.w3.org/2000/svg">
<path d="M28 0H2C0.895431 0 0 0.89543 0 2V28C0 29.1046 0.89543 30 2 30H28C29.1046 30 30 29.1046 30 28V2C30 0.895431 29.1046 0 28 0Z" fill="#44678D"/>
<path d="M9.50292 10.5164C10.0506 11.8752 10.7446 13.1563 11.6588 14.3064C11.78 14.4595 11.9329 14.5955 12.0939 14.7063C12.329 14.8686 12.5509 14.8115 12.6465 14.5413C12.7477 14.2576 12.8405 13.6828 12.846 13.385C12.8611 12.6067 12.8437 12.0967 12.8021 11.3194C12.7751 10.8216 12.599 10.3845 11.8701 10.2525C11.645 10.2116 11.6241 10.0255 11.7687 9.83978C12.0698 9.45318 12.4892 9.39157 12.944 9.36718C13.6811 9.32718 14.4209 9.35983 15.1588 9.36718C15.4594 9.36996 15.7619 9.39429 16.0579 9.45912C16.444 9.54371 16.6508 9.81585 16.7145 10.1946C16.7474 10.39 16.7643 10.5908 16.7597 10.7885C16.7405 11.638 16.6998 12.487 16.6902 13.336C16.6861 13.6693 16.7103 14.0108 16.7812 14.3354C16.8805 14.7877 17.187 14.9012 17.5005 14.5744C17.8985 14.1593 18.2495 13.6923 18.5788 13.2179C19.1773 12.3551 19.6242 11.4082 20.009 10.4319C20.2081 9.92809 20.3604 9.81867 20.8998 9.81731C21.9137 9.815 22.9276 9.81409 23.9414 9.81731C24.1212 9.81822 24.3093 9.83525 24.479 9.8895C24.7544 9.97777 24.8638 10.2035 24.7993 10.4899C24.6487 11.161 24.2878 11.7314 23.9012 12.2798C23.2808 13.1596 22.6306 14.0183 21.9956 14.888C21.9146 14.9988 21.8433 15.1169 21.7769 15.2369C21.5394 15.6681 21.5559 15.9098 21.9023 16.2688C22.4536 16.8402 23.0438 17.3748 23.5777 17.9618C23.9657 18.3888 24.3248 18.8522 24.6323 19.3399C25.0212 19.9568 24.781 20.5378 24.0545 20.6412C23.5974 20.706 21.3648 20.6417 21.2494 20.6412C20.6492 20.6385 20.123 20.4293 19.6993 20.0197C19.2281 19.5638 18.7998 19.0636 18.3473 18.5878C18.211 18.4444 18.0655 18.307 17.9086 18.187C17.5384 17.9033 17.1752 17.9663 17.0022 18.403C16.8545 18.7782 16.7268 19.7632 16.7208 19.8473C16.6897 20.2872 16.4111 20.5676 15.9206 20.5947C14.5046 20.672 13.1325 20.5134 11.8542 19.8253C10.7708 19.2424 9.90561 18.4182 9.15619 17.457C7.96571 15.9304 7.0254 14.2522 6.16692 12.5248C6.12304 12.4365 5.25353 10.5776 5.23016 10.4898C5.15249 10.1958 5.22495 9.9149 5.4722 9.81822C5.62634 9.75797 8.49316 9.81802 8.54084 9.82059C8.99829 9.84547 9.31022 10.0394 9.50292 10.5164Z" fill="white"/>
</svg>
