<svg width="30" height="30" viewBox="0 0 30 30" fill="none" xmlns="http://www.w3.org/2000/svg">
<path d="M28 0H2C0.895431 0 0 0.89543 0 2V28C0 29.1046 0.89543 30 2 30H28C29.1046 30 30 29.1046 30 28V2C30 0.895431 29.1046 0 28 0Z" fill="#FF0000"/>
<path d="M22.3764 10.0301C21.7988 9.29845 20.7325 9 18.6961 9H11.3038C9.22075 9 8.13636 9.3177 7.56098 10.0967C7 10.8562 7 11.9752 7 13.524V16.476C7 19.4766 7.6656 21 11.3038 21H18.6961C20.4621 21 21.4407 20.7366 22.0738 20.0909C22.723 19.4288 23 18.3477 23 16.476V13.524C23 11.8907 22.9566 10.765 22.3764 10.0301ZM17.2721 15.4076L13.9153 17.2772C13.8402 17.319 13.7581 17.3398 13.6762 17.3398C13.5834 17.3398 13.4908 17.3131 13.4088 17.2602C13.2543 17.1605 13.1601 16.9821 13.1601 16.7897V13.0624C13.1601 12.8704 13.2541 12.6921 13.4082 12.5924C13.5624 12.4926 13.7541 12.4858 13.9141 12.5743L17.2709 14.4319C17.4417 14.5264 17.5489 14.7143 17.5492 14.9193C17.5494 15.1245 17.4426 15.3126 17.2721 15.4076Z" fill="white"/>
</svg>
